<svg width="133" height="144" viewBox="0 0 133 144" fill="none" xmlns="http://www.w3.org/2000/svg">
<mask id="mask0_29_60" style="mask-type:alpha" maskUnits="userSpaceOnUse" x="7" y="19" width="120" height="95">
<path d="M38.656 68.456C43.6053 70.248 48.6827 73.2773 53.888 77.544C59.1787 81.7253 61.824 87.9973 61.824 96.36C61.824 101.821 59.8613 105.832 55.936 108.392C52.096 110.867 48.1707 112.36 44.16 112.872C40.2347 113.299 36.096 113.512 31.744 113.512L19.328 113.768L11.52 113.896C10.1547 113.896 9.216 113.469 8.704 112.616C8.192 111.763 7.936 110.568 7.936 109.032L8.064 80.616V74.472C8.064 71.2293 8.192 68.2853 8.448 65.64L8.832 50.024C8.832 48.232 8.87467 45.5867 8.96 42.088C9.04533 38.504 9.13067 36.2427 9.216 35.304C9.30133 34.6213 9.344 33.4267 9.344 31.72C9.344 28.7333 9.216 26.6 8.96 25.32C8.87467 25.1493 8.832 24.936 8.832 24.68C8.832 24.168 9.30133 23.784 10.24 23.528C11.0933 23.272 13.3547 22.9307 17.024 22.504C20.6933 21.992 24.0213 21.736 27.008 21.736C35.1147 21.736 41.5147 23.3573 46.208 26.6C50.9867 29.8427 53.376 35.9867 53.376 45.032C53.376 53.224 50.9013 59.624 45.952 64.232C43.7333 66.1093 41.3013 67.5173 38.656 68.456ZM24.704 61.928C24.704 62.7813 24.6613 63.5493 24.576 64.232C24.4907 64.8293 24.448 65.2987 24.448 65.64C24.448 66.152 24.4907 66.4933 24.576 66.664C24.6613 66.7493 24.9173 66.792 25.344 66.792C27.0507 66.792 29.696 66.3227 33.28 65.384C36.864 64.4453 40.32 62.44 43.648 59.368C46.976 56.296 48.64 51.8587 48.64 46.056C48.64 39.912 47.5733 35.3467 45.44 32.36C43.3067 29.3733 40.6187 27.496 37.376 26.728C34.2187 25.8747 30.1653 25.448 25.216 25.448L24.96 33.64C24.7893 39.784 24.704 44.3493 24.704 47.336V61.928ZM28.672 111.08C37.0347 111.08 43.3067 109.757 47.488 107.112C51.6693 104.381 53.76 100.755 53.76 96.232C53.76 84.7973 48.8533 77.032 39.04 72.936C34.688 71.3147 29.7813 70.5467 24.32 70.632C24.2347 70.888 24.192 71.2293 24.192 71.656C24.1067 72.0827 24.064 73.064 24.064 74.6L24.32 82.792L24.576 89.704C24.576 90.8987 24.5333 91.752 24.448 92.264L24.32 95.592L24.576 103.144L24.832 109.032C24.832 110.056 25.0027 110.696 25.344 110.952C25.7707 111.123 26.3253 111.208 27.008 111.208C27.776 111.123 28.3307 111.08 28.672 111.08Z" fill="white"/>
<path d="M93.192 58.856C93.6187 58.856 93.96 58.6853 94.216 58.344C94.5573 57.9173 94.856 57.4053 95.112 56.808C95.368 56.1253 95.6667 55.528 96.008 55.016L103.048 43.496C107.059 36.9253 110.131 32.1893 112.264 29.288C113.032 28.264 113.8 26.9413 114.568 25.32C115.848 22.8453 116.872 21.3947 117.64 20.968C119.176 20.2853 120.712 19.944 122.248 19.944C123.699 19.944 124.765 20.2 125.448 20.712C126.216 21.224 126.429 21.9493 126.088 22.888C125.661 24.168 124.339 26.3013 122.12 29.288C120.755 30.9947 118.749 33.896 116.104 37.992L112.904 42.856C111.88 44.3067 109.875 47.8907 106.888 53.608C103.901 59.3253 101.725 63.5493 100.36 66.28C99.7627 67.1333 99.464 67.8587 99.464 68.456C99.464 68.8827 99.7627 69.7787 100.36 71.144C100.616 71.656 101.811 73.6187 103.944 77.032C104.371 77.7147 104.84 78.44 105.352 79.208C105.864 79.976 106.333 80.7867 106.76 81.64C110.344 88.1253 113.288 92.904 115.592 95.976C117.213 98.536 118.92 101.309 120.712 104.296C122.504 107.283 123.912 109.672 124.936 111.464C125.277 112.061 125.448 112.531 125.448 112.872C125.448 113.469 124.68 113.768 123.144 113.768L115.08 113.64C114.568 113.555 114.184 113.341 113.928 113C113.672 112.744 113.373 112.189 113.032 111.336L111.624 108.52C111.197 107.581 110.045 105.832 108.168 103.272C106.035 100.371 104.627 98.1093 103.944 96.488C103.091 94.952 101.469 92.2213 99.08 88.296C96.776 84.2853 94.984 81.2133 93.704 79.08C93.1067 78.2267 92.5947 77.8 92.168 77.8C91.8267 77.8 91.272 78.312 90.504 79.336C89.3093 80.7867 88.072 82.408 86.792 84.2C84.6587 87.1013 83.08 89.192 82.056 90.472C80.8613 92.008 79.24 94.44 77.192 97.768C75.2293 101.096 73.9067 103.613 73.224 105.32C72.456 106.941 71.3893 108.563 70.024 110.184C68.744 111.805 67.72 112.787 66.952 113.128C66.2693 113.299 65.544 113.384 64.776 113.384C63.24 113.384 61.704 113.171 60.168 112.744C59.4 112.488 59.016 112.104 59.016 111.592C59.016 111.165 59.272 110.525 59.784 109.672C60.296 108.819 60.68 108.221 60.936 107.88C61.448 107.027 62.8133 105.064 65.032 101.992C67.336 98.8347 69 96.5307 70.024 95.08C70.024 95.08 71.3893 93.2027 74.12 89.448C75.144 88.0827 77.2347 85.0107 80.392 80.232C82.3547 76.9893 83.9333 74.6427 85.128 73.192C86.152 71.7413 86.664 70.4187 86.664 69.224C86.664 68.3707 86.3653 67.3467 85.768 66.152C85.3413 65.2987 83.8907 62.7813 81.416 58.6L75.4 47.72C74.2907 45.5867 71.0907 40.424 65.8 32.232C63.3253 28.4773 61.704 25.9173 60.936 24.552C60.3387 23.6133 60.04 22.8453 60.04 22.248C60.04 21.48 60.5093 21.096 61.448 21.096C62.8133 21.096 63.88 21.0533 64.648 20.968L68.36 20.84C69.0427 20.9253 69.64 21.2667 70.152 21.864C70.7493 22.4613 71.432 23.4 72.2 24.68L73.992 27.368L75.4 29.672C78.472 34.536 80.8187 38.3333 82.44 41.064C83.976 43.7947 86.2373 47.6347 89.224 52.584C90.5893 54.888 91.912 56.9787 93.192 58.856Z" fill="white"/>
</mask>
<g mask="url(#mask0_29_60)">
<circle cx="76.5" cy="67.5" r="50.5" fill="#D9D9D9"/>
</g>
<mask id="mask1_29_60" style="mask-type:alpha" maskUnits="userSpaceOnUse" x="28" y="16" width="101" height="101">
<circle cx="78.5" cy="66.5" r="50.5" fill="#D9D9D9"/>
</mask>
<g mask="url(#mask1_29_60)">
<path d="M144 66.5C144 77.2696 139.232 89 131.5 89C123.768 89 114 77.2696 114 66.5C114 55.7304 123.768 48 131.5 48C139.232 48 144 55.7304 144 66.5Z" fill="#D9D9D9"/>
</g>
</svg>
