<svg xmlns="http://www.w3.org/2000/svg" viewBox="0 0 24 24" fill="none">
  <path fill-rule="evenodd" clip-rule="evenodd" d="M12 22C17.5228 22 22 17.5228 22 12C22 6.47715 17.5228 2 12 2C6.47715 2 2 6.47715 2 12C2 17.5228 6.47715 22 12 22ZM11.15 7.95C11.15 7.50817 11.5082 7.15 11.95 7.15H12.05C12.4918 7.15 12.85 7.50817 12.85 7.95V16.05C12.85 16.4918 12.4918 16.85 12.05 16.85H11.95C11.5082 16.85 11.15 16.4918 11.15 16.05V7.95ZM7.15 11.95C7.15 11.5082 7.50817 11.15 7.95 11.15H16.05C16.4918 11.15 16.85 11.5082 16.85 11.95V12.05C16.85 12.4918 16.4918 12.85 16.05 12.85H7.95C7.50817 12.85 7.15 12.4918 7.15 12.05V11.95Z" fill="#0052FF"/>
</svg>
