<svg xmlns="http://www.w3.org/2000/svg" viewBox="0 0 24 24" fill="none">
  <path d="M21.02 1L13.09 7.68L14.56 3.93L21.02 1Z" fill="#E17726"/>
  <path d="M2.98 1L10.84 7.74L9.44 3.93L2.98 1Z" fill="#E27625"/>
  <path d="M18.06 16.79L15.86 20.52L20.56 21.97L21.92 16.87L18.06 16.79Z" fill="#E27625"/>
  <path d="M2.09 16.87L3.44 21.97L8.13 20.52L5.94 16.79L2.09 16.87Z" fill="#E27625"/>
  <path d="M7.85 10.68L6.62 12.89L11.26 13.14L11.09 8.11L7.85 10.68Z" fill="#E27625"/>
  <path d="M16.15 10.68L12.87 8.05L12.74 13.14L17.38 12.89L16.15 10.68Z" fill="#E27625"/>
  <path d="M8.13 20.52L10.95 19.02L8.55 16.92L8.13 20.52Z" fill="#E27625"/>
  <path d="M13.05 19.02L15.86 20.52L15.45 16.92L13.05 19.02Z" fill="#E27625"/>
  <path d="M15.86 20.52L13.05 19.02L13.28 21.03L13.26 21.91L15.86 20.52Z" fill="#D5BFB2"/>
  <path d="M8.13 20.52L10.74 21.91L10.73 21.03L10.95 19.02L8.13 20.52Z" fill="#D5BFB2"/>
  <path d="M10.78 15.6L8.45 14.84L10.07 14.02L10.78 15.6Z" fill="#233447"/>
  <path d="M13.22 15.6L13.93 14.02L15.55 14.84L13.22 15.6Z" fill="#233447"/>
  <path d="M8.13 20.52L8.57 16.79L5.94 16.87L8.13 20.52Z" fill="#CC6228"/>
  <path d="M15.43 16.79L15.86 20.52L18.06 16.87L15.43 16.79Z" fill="#CC6228"/>
  <path d="M17.38 12.89L12.74 13.14L13.22 15.6L13.93 14.02L15.55 14.84L17.38 12.89Z" fill="#CC6228"/>
  <path d="M8.45 14.84L10.07 14.02L10.78 15.6L11.26 13.14L6.62 12.89L8.45 14.84Z" fill="#CC6228"/>
  <path d="M6.62 12.89L8.55 16.92L8.45 14.84L6.62 12.89Z" fill="#E27525"/>
  <path d="M15.55 14.84L15.45 16.92L17.38 12.89L15.55 14.84Z" fill="#E27525"/>
  <path d="M11.26 13.14L10.78 15.6L11.38 18.71L11.54 14.53L11.26 13.14Z" fill="#E27525"/>
  <path d="M12.74 13.14L12.47 14.52L12.61 18.71L13.22 15.6L12.74 13.14Z" fill="#E27525"/>
  <path d="M13.22 15.6L12.61 18.71L13.05 19.02L15.45 16.92L15.55 14.84L13.22 15.6Z" fill="#F5841F"/>
  <path d="M8.45 14.84L8.55 16.92L10.95 19.02L11.38 18.71L10.78 15.6L8.45 14.84Z" fill="#F5841F"/>
  <path d="M13.26 21.91L13.28 21.03L13.06 20.83H10.94L10.73 21.03L10.74 21.91L8.13 20.52L9.13 21.32L10.91 22.5H13.09L14.87 21.32L15.86 20.52L13.26 21.91Z" fill="#C0AC9D"/>
  <path d="M13.05 19.02L12.61 18.71H11.38L10.95 19.02L10.73 21.03L10.94 20.83H13.06L13.28 21.03L13.05 19.02Z" fill="#161616"/>
  <path d="M21.42 8.23L22.06 4.54L21.02 1L13.05 7.49L16.15 10.68L20.42 12.07L21.37 10.93L20.97 10.65L21.62 10.07L21.13 9.7L21.78 9.22L21.42 8.23Z" fill="#763E1A"/>
  <path d="M1.94 4.54L2.58 8.23L2.2 9.22L2.86 9.7L2.37 10.07L3.02 10.65L2.62 10.93L3.57 12.07L7.85 10.68L10.95 7.49L2.98 1L1.94 4.54Z" fill="#763E1A"/>
  <path d="M20.42 12.07L16.15 10.68L17.38 12.89L15.45 16.92L18.06 16.87H21.92L20.42 12.07Z" fill="#F5841F"/>
  <path d="M7.85 10.68L3.57 12.07L2.09 16.87H5.94L8.55 16.92L6.62 12.89L7.85 10.68Z" fill="#F5841F"/>
  <path d="M12.74 13.14L13.05 7.49L14.56 3.93H9.44L10.95 7.49L11.26 13.14L11.38 14.53L11.38 18.71H12.61L12.62 14.53L12.74 13.14Z" fill="#F5841F"/>
</svg>
