<svg xmlns="http://www.w3.org/2000/svg" viewBox="0 0 24 24" fill="none">
  <path fill-rule="evenodd" clip-rule="evenodd" d="M12.0002 22C17.5231 22 22.0002 17.5228 22.0002 12C22.0002 6.47715 17.5231 2 12.0002 2C6.47736 2 2.00021 6.47715 2.00021 12C2.00021 17.5228 6.47736 22 12.0002 22Z" fill="#2DD8A7"/>
  <path fill-rule="evenodd" clip-rule="evenodd" d="M12.0002 20.2667C16.5663 20.2667 20.2669 16.5661 20.2669 12C20.2669 7.43387 16.5663 3.73333 12.0002 3.73333C7.43407 3.73333 3.73354 7.43387 3.73354 12C3.73354 16.5661 7.43407 20.2667 12.0002 20.2667Z" fill="white"/>
  <path d="M12.7288 8.60138L10.0364 8.60182L7.67773 12.0002L10.0364 15.3985L12.7288 15.3989C13.3395 15.3989 13.9103 15.1552 14.3232 14.7422C14.7362 14.3293 14.9799 13.7584 14.9799 13.1478V10.8513C14.9797 10.241 14.736 9.67035 14.3231 9.25758C13.9103 8.8448 13.3395 8.60135 12.7288 8.60138Z" fill="#2DD8A7"/>
  <path d="M7.67773 12.0002L10.0364 8.60182L10.0364 15.3985L7.67773 12.0002Z" fill="white"/>
</svg>
