<svg xmlns="http://www.w3.org/2000/svg" viewBox="0 0 24 24" fill="none">
  <path d="M12 22C17.5228 22 22 17.5228 22 12C22 6.47715 17.5228 2 12 2C6.47715 2 2 6.47715 2 12C2 17.5228 6.47715 22 12 22Z" fill="white"/>
  <path d="M16.0842 14.8901L15.2599 13.3388L14.175 14.8901H12.9299L14.6382 12.4162L12.9456 9.96094H14.2063L15.0306 11.5122L16.0999 9.96094H17.345L15.6523 12.4162L17.3607 14.8901H16.0842Z" fill="black"/>
  <path d="M8.17578 9.96094L7.44448 12.4941L6.69746 9.96094H5.45801L6.74382 13.7196V14.8901H7.91286V13.705L9.33941 9.96094H8.17578Z" fill="black"/>
  <path d="M9.81383 9.96094V14.8901H11.745C12.4133 14.8901 12.9455 14.673 13.3419 14.2387C13.7383 13.7972 13.9365 13.2441 13.9365 12.5795C13.9365 11.9149 13.7383 11.3647 13.3419 10.9304C12.9455 10.4889 12.4133 10.2718 11.745 10.2718H10.9678V9.96094H9.81383ZM10.9678 11.2553H11.5627C11.9015 11.2553 12.1726 11.3576 12.3762 11.5621C12.5799 11.7667 12.6816 12.0462 12.6816 12.4005C12.6816 12.7548 12.5799 13.0342 12.3762 13.2388C12.1726 13.4433 11.9015 13.5456 11.5627 13.5456H10.9678V11.2553Z" fill="black"/>
  <path d="M18.5257 14.8901V14.5793H19.2258V10.2718H18.5257V9.96094H20.3736V10.2718H19.6736V14.5793H20.3736V14.8901H18.5257Z" fill="black"/>
  <path d="M3.61328 14.8901V9.96094H4.78232V14.8901H3.61328Z" fill="black"/>
</svg>
