<svg xmlns="http://www.w3.org/2000/svg" viewBox="0 0 24 24" fill="none">
  <path d="M5.7 7.4C8.81 4.3 13.99 4.3 17.1 7.4L17.45 7.75C17.59 7.89 17.59 8.11 17.45 8.25L16.14 9.57C16.07 9.64 15.96 9.64 15.89 9.57L15.4 9.08C13.15 6.83 9.65 6.83 7.4 9.08L6.87 9.61C6.8 9.68 6.69 9.68 6.62 9.61L5.31 8.29C5.16 8.15 5.16 7.93 5.31 7.79L5.7 7.4ZM20.14 10.44L21.32 11.62C21.46 11.76 21.46 11.98 21.32 12.12L16.84 16.61C16.7 16.75 16.47 16.75 16.33 16.61L13.19 13.47C13.16 13.44 13.11 13.44 13.08 13.47L9.94 16.61C9.8 16.75 9.57 16.75 9.43 16.61L4.95 12.12C4.81 11.98 4.81 11.76 4.95 11.62L6.13 10.44C6.27 10.3 6.5 10.3 6.64 10.44L9.78 13.58C9.81 13.61 9.86 13.61 9.89 13.58L13.03 10.44C13.17 10.3 13.4 10.3 13.54 10.44L16.68 13.58C16.71 13.61 16.76 13.61 16.79 13.58L19.93 10.44C20.07 10.3 20.3 10.3 20.44 10.44H20.14Z" fill="#3B99FC"/>
</svg>
